<svg xmlns="http://www.w3.org/2000/svg" viewBox="0 0 69.02 64"><defs><style>.cls-2{fill:#009cff}</style></defs><g id="Layer_2" data-name="Layer 2"><path fill="none" d="M0 0h69.02v64H0z" id="Rectangle"/><g id="_5" data-name="5"><g id="Page-1"><g id="S4"><path id="Rectangle-2" data-name="Rectangle" class="cls-2" d="M45 46h1v2h-1z"/><path class="cls-2" d="M49.01 49.01h1v1h-1zM51.02 53.01h2v1h-2zM49.01 57.02h1v1h-1zM45 59.03h1v2h-1zM41 57.02h1v1h-1zM37.99 53.01h2v1h-2zM41 49.01h1v1h-1z"/></g></g></g><g id="_2" data-name="2"><g id="Page-1-2" data-name="Page-1"><g id="S5"><path id="Rectangle-3" data-name="Rectangle" class="cls-2" d="M50.99 14.98h1v1h-1z"/><path class="cls-2" d="M55.99 12.98h1v1h-1zM48.99 19.98h1v1h-1zM60.99 14.98h1v1h-1zM62.99 19.98h1v1h-1zM60.99 24.98h1v1h-1zM55.99 26.98h1v1h-1zM50.99 24.98h1v1h-1z"/></g></g></g><g id="_1" data-name="1"><g id="Page-1-3" data-name="Page-1"><g id="S4-2" data-name="S4"><path id="Rectangle-4" data-name="Rectangle" class="cls-2" d="M12 4.98h1v2h-1z"/><path class="cls-2" d="M16.01 7.99h1v1h-1zM18.01 11.99h2v1h-2zM16.01 16h1v1h-1zM12 18.01h1v2h-1zM8 16h1v1H8zM4.99 11.99h2v1h-2zM8 7.99h1v1H8z"/></g></g></g></g></svg>