<svg xmlns="http://www.w3.org/2000/svg" viewBox="0 0 69.02 64"><defs><style>.cls-2{fill:#009cff}</style></defs><g id="Layer_2" data-name="Layer 2"><path fill="none" d="M0 0h69.02v64H0z" id="Rectangle"/><g id="_5" data-name="5"><g id="Page-1"><g id="S3"><path id="Rectangle-2" data-name="Rectangle" class="cls-2" d="M45 47h1v3h-1z"/><path class="cls-2" d="M48 50h1v1h-1zM49 53h3v1h-3zM42 50h1v1h-1zM39 53h3v1h-3zM42 56h1v1h-1zM45 57h1v3h-1zM48 56h1v1h-1z"/></g></g></g><g id="_4" data-name="4"><g id="Page-1-2" data-name="Page-1"><g id="S5"><path id="Rectangle-3" data-name="Rectangle" class="cls-2" d="M2.99 41.98h1v1h-1z"/><path class="cls-2" d="M7.99 39.98h1v1h-1zM.99 46.98h1v1h-1zM12.99 41.98h1v1h-1zM14.99 46.98h1v1h-1zM12.99 51.98h1v1h-1zM7.99 53.98h1v1h-1zM2.99 51.98h1v1h-1z"/></g></g></g><g id="_3" data-name="3"><g id="Page-1-3" data-name="Page-1"><g id="S5-2" data-name="S5"><path id="Rectangle-4" data-name="Rectangle" class="cls-2" d="M55.99 27.99h1v1h-1z"/><path class="cls-2" d="M60.99 25.99h1v1h-1zM53.99 32.99h1v1h-1zM65.99 27.99h1v1h-1zM67.99 32.99h1v1h-1zM65.99 37.99h1v1h-1zM60.99 39.99h1v1h-1zM55.99 37.99h1v1h-1z"/></g></g></g><g id="_2" data-name="2"><g id="Page-1-4" data-name="Page-1"><g id="S4"><path id="Rectangle-5" data-name="Rectangle" class="cls-2" d="M56 12.98h1v2h-1z"/><path class="cls-2" d="M60.01 15.99h1v1h-1zM62.01 19.99h2v1h-2zM60.01 24h1v1h-1zM56 26.01h1v2h-1zM52 24h1v1h-1zM48.99 19.99h2v1h-2zM52 15.99h1v1h-1z"/></g></g></g><g id="_1" data-name="1"><g id="Page-1-5" data-name="Page-1"><g id="S3-2" data-name="S3"><path id="Rectangle-6" data-name="Rectangle" class="cls-2" d="M12 5.98h1v3h-1z"/><path class="cls-2" d="M15 8.98h1v1h-1zM16 11.98h3v1h-3zM9 8.98h1v1H9zM6 11.98h3v1H6zM9 14.98h1v1H9zM12 15.98h1v3h-1zM15 14.98h1v1h-1z"/></g></g></g></g></svg>