<svg xmlns="http://www.w3.org/2000/svg" viewBox="0 0 69.02 64"><defs><style>.cls-2{fill:#009cff}</style></defs><g id="Layer_2" data-name="Layer 2"><path fill="none" d="M0 0h69.02v64H0z" id="Rectangle"/><g id="_5" data-name="5"><g id="Page-1"><g id="S5"><path id="Rectangle-2" data-name="Rectangle" class="cls-2" d="M39.99 48h1v1h-1z"/><path class="cls-2" d="M44.99 46h1v1h-1zM37.99 53h1v1h-1zM49.99 48h1v1h-1zM51.99 53h1v1h-1zM49.99 58h1v1h-1zM44.99 60h1v1h-1zM39.99 58h1v1h-1z"/></g></g></g><g id="_1" data-name="1"><g id="Page-1-2" data-name="Page-1"><g id="S5-2" data-name="S5"><path id="Rectangle-3" data-name="Rectangle" class="cls-2" d="M6.99 6.98h1v1h-1z"/><path class="cls-2" d="M11.99 4.98h1v1h-1zM4.99 11.98h1v1h-1zM16.99 6.98h1v1h-1zM18.99 11.98h1v1h-1zM16.99 16.98h1v1h-1zM11.99 18.98h1v1h-1zM6.99 16.98h1v1h-1z"/></g></g></g></g></svg>