<svg xmlns="http://www.w3.org/2000/svg" viewBox="0 0 69.02 64"><defs><style>.cls-2{fill:#009cff}</style></defs><g id="Layer_2" data-name="Layer 2"><path fill="none" d="M0 0h69.02v64H0z" id="Rectangle"/><g id="_5" data-name="5"><g id="Page-1"><g id="S1"><path id="Rectangle-2" data-name="Rectangle" class="cls-2" d="M44.99 51h1v2h-1z"/><path class="cls-2" d="M46 53h2v1h-2zM44.99 54.01h1v2h-1zM42.99 53h2v1h-2z"/></g></g></g><g id="_4" data-name="4"><g id="Page-1-2" data-name="Page-1"><g id="S3"><path id="Rectangle-3" data-name="Rectangle" class="cls-2" d="M8 40.98h1v3H8z"/><path class="cls-2" d="M11 43.98h1v1h-1zM12 46.98h3v1h-3zM5 43.98h1v1H5zM2 46.98h3v1H2zM5 49.98h1v1H5zM8 50.98h1v3H8zM11 49.98h1v1h-1z"/></g></g></g><g id="_3" data-name="3"><g id="Page-1-3" data-name="Page-1"><g id="S3-2" data-name="S3"><path id="Rectangle-4" data-name="Rectangle" class="cls-2" d="M61 26.99h1v3h-1z"/><path class="cls-2" d="M64 29.99h1v1h-1zM65 32.99h3v1h-3zM58 29.99h1v1h-1zM55 32.99h3v1h-3zM58 35.99h1v1h-1zM61 36.99h1v3h-1zM64 35.99h1v1h-1z"/></g></g></g><g id="_2" data-name="2"><g id="Page-1-4" data-name="Page-1"><g id="S2"><path id="Rectangle-5" data-name="Rectangle" class="cls-2" d="M56 14.98h1v4h-1z"/><path class="cls-2" d="M57 18.98h1v1h-1zM58 19.98h4v1h-4zM57 20.98h1v1h-1zM56 21.98h1v4h-1zM55 18.98h1v1h-1zM55 20.98h1v1h-1zM51 19.98h4v1h-4z"/></g></g></g><g id="_1" data-name="1"><g id="Page-1-5" data-name="Page-1"><g id="S1-2" data-name="S1"><path id="Rectangle-6" data-name="Rectangle" class="cls-2" d="M11.99 9.98h1v2h-1z"/><path class="cls-2" d="M13 11.98h2v1h-2zM11.99 12.99h1v2h-1zM9.99 11.98h2v1h-2z"/></g></g></g></g></svg>