<svg xmlns="http://www.w3.org/2000/svg" viewBox="0 0 69.02 64"><defs><style>.cls-2{fill:#009cff}</style></defs><g id="Layer_2" data-name="Layer 2"><path fill="none" d="M0 0h69.02v64H0z" id="Rectangle"/><g id="_5" data-name="5"><g id="Page-1"><g id="S2"><path id="Rectangle-2" data-name="Rectangle" class="cls-2" d="M45 48h1v4h-1z"/><path class="cls-2" d="M46 52h1v1h-1zM47 53h4v1h-4zM46 54h1v1h-1zM45 55h1v4h-1zM44 52h1v1h-1zM44 54h1v1h-1zM40 53h4v1h-4z"/></g></g></g><g id="_4" data-name="4"><g id="Page-1-2" data-name="Page-1"><g id="S4"><path id="Rectangle-3" data-name="Rectangle" class="cls-2" d="M8 39.98h1v2H8z"/><path class="cls-2" d="M12.01 42.99h1v1h-1zM14.01 46.99h2v1h-2zM12.01 51h1v1h-1zM8 53.01h1v2H8zM4 51h1v1H4zM.99 46.99h2v1h-2zM4 42.99h1v1H4z"/></g></g></g><g id="_3" data-name="3"><g id="Page-1-3" data-name="Page-1"><g id="S4-2" data-name="S4"><path id="Rectangle-4" data-name="Rectangle" class="cls-2" d="M61 25.99h1v2h-1z"/><path class="cls-2" d="M65.01 29h1v1h-1zM67.02 33h2v1h-2zM65.01 37.01h1v1h-1zM61 39.02h1v2h-1zM57 37.01h1v1h-1zM53.99 33h2v1h-2zM57 29h1v1h-1z"/></g></g></g><g id="_2" data-name="2"><g id="Page-1-4" data-name="Page-1"><g id="S3"><path id="Rectangle-5" data-name="Rectangle" class="cls-2" d="M56 13.98h1v3h-1z"/><path class="cls-2" d="M59 16.98h1v1h-1zM60 19.98h3v1h-3zM53 16.98h1v1h-1zM50 19.98h3v1h-3zM53 22.98h1v1h-1zM56 23.98h1v3h-1zM59 22.98h1v1h-1z"/></g></g></g><g id="_1" data-name="1"><g id="Page-1-5" data-name="Page-1"><g id="S2-2" data-name="S2"><path id="Rectangle-6" data-name="Rectangle" class="cls-2" d="M12 6.98h1v4h-1z"/><path class="cls-2" d="M13 10.98h1v1h-1zM14 11.98h4v1h-4zM13 12.98h1v1h-1zM12 13.98h1v4h-1zM11 10.98h1v1h-1zM11 12.98h1v1h-1zM7 11.98h4v1H7z"/></g></g></g></g></svg>