<svg xmlns="http://www.w3.org/2000/svg" viewBox="0 0 69.02 64"><defs><style>.cls-2{fill:#009cff}</style></defs><g id="Layer_2" data-name="Layer 2"><path fill="none" d="M0 0h69.02v64H0z" id="Rectangle"/><g id="_4" data-name="4"><g id="Page-1"><g id="S2"><path id="Rectangle-2" data-name="Rectangle" class="cls-2" d="M8 41.98h1v4H8z"/><path class="cls-2" d="M9 45.98h1v1H9zM10 46.98h4v1h-4zM9 47.98h1v1H9zM8 48.98h1v4H8zM7 45.98h1v1H7zM7 47.98h1v1H7zM3 46.98h4v1H3z"/></g></g></g><g id="_3" data-name="3"><g id="Page-1-2" data-name="Page-1"><g id="S2-2" data-name="S2"><path id="Rectangle-3" data-name="Rectangle" class="cls-2" d="M61 27.99h1v4h-1z"/><path class="cls-2" d="M62 31.99h1v1h-1zM63 32.99h4v1h-4zM62 33.99h1v1h-1zM61 34.99h1v4h-1zM60 31.99h1v1h-1zM60 33.99h1v1h-1zM56 32.99h4v1h-4z"/></g></g></g><g id="_2" data-name="2"><g id="Page-1-3" data-name="Page-1"><g id="S1"><path id="Rectangle-4" data-name="Rectangle" class="cls-2" d="M55.99 17.98h1v2h-1z"/><path class="cls-2" d="M57 19.98h2v1h-2zM55.99 20.99h1v2h-1zM53.99 19.98h2v1h-2z"/></g></g></g></g></svg>