<svg width="64" height="64" xmlns="http://www.w3.org/2000/svg"><path d="M35 32h1v1h-1v-1zm0-1h1v1h-1v-1zm0-2h1v1h-1v-1zm1-1h1v1h-1v-1zm0-1h1v1h-1v-1zm0-1h1v1h-1v-1zm1-1h1v1h-1v-1zm0 1h1v1h-1v-1zm0-2h1v1h-1v-1zm1-2h1v1h-1v-1zm-1-1h1v1h-1v-1zm-1 0h1v1h-1v-1zm-8 0h1v1h-1v-1zm-1 0h1v1h-1v-1zm10 1h1v1h-1v-1zm-1 0h1v1h-1v-1zm0 2h1v1h-1v-1zm-1 0h1v1h-1v-1zm1 1h1v1h-1v-1zm-1 0h1v1h-1v-1zm0 1h1v1h-1v-1zm-1 0h1v1h-1v-1zm1 1h1v1h-1v-1zm-1 0h1v1h-1v-1zm1 1h1v1h-1v-1zm-1 0h1v1h-1v-1zm0-3h1v1h-1v-1zm-1 3h1v1h-1v-1zm-5-6h1v1h-1v-1zm-1 0h1v1h-1v-1zm-1 0h1v1h-1v-1zm0 2h1v1h-1v-1zm0 1h1v1h-1v-1zm1 1h1v1h-1v-1zm-1 0h1v1h-1v-1zm0 1h1v1h-1v-1zm0 1h1v1h-1v-1zm0 1h1v1h-1v-1zm0 1h1v1h-1v-1zm-1 1h1v1h-1v-1zm0 1h1v1h-1v-1zm0 1h1v1h-1v-1zm0 1h1v1h-1v-1zm0 1h1v1h-1v-1zm1 1h1v1h-1v-1zm0 1h1v1h-1v-1zm1 1h1v1h-1v-1zm-1 1h1v1h-1v-1zm0 1h1v1h-1v-1zm1 1h1v1h-1v-1zm1 1h1v1h-1v-1zm1 1h1v1h-1v-1zm1 0h1v1h-1v-1zm1 0h1v1h-1v-1zm1 0h1v1h-1v-1zm1 0h1v1h-1v-1zm1-1h1v1h-1v-1zm1 0h1v1h-1v-1zm1-1h1v1h-1v-1zm0-1h1v1h-1v-1zm-1 0h1v1h-1v-1zm0 1h1v1h-1v-1zm-1 0h1v1h-1v-1zm-1 0h1v1h-1v-1zm0 1h1v1h-1v-1zm-1 0h1v1h-1v-1zm-1 0h1v1h-1v-1zm-1 0h1v1h-1v-1zm-1 0h1v1h-1v-1zm0-1h1v1h-1v-1zm-1 0h1v1h-1v-1zm0-1h1v1h-1v-1zm-1 0h1v1h-1v-1zm0 0h1v1h-1v-1zm0-3h1v1h-1v-1zm2 2h1v1h-1v-1zm1 0h1v1h-1v-1zm0 1h1v1h-1v-1zm1 0h1v1h-1v-1zm1 0h1v1h-1v-1zm1-1h1v1h-1v-1zm1 0h1v1h-1v-1zm1-1h1v1h-1v-1zm0-1h1v1h-1v-1zm1-1h1v1h-1v-1zm0-1h1v1h-1v-1zm0-1h1v1h-1v-1zm0-1h1v1h-1v-1zm0-1h1v1h-1v-1zm0-1h1v1h-1v-1zm1 1h1v1h-1v-1zm0 1h1v1h-1v-1zm-2 3h1v1h-1v-1zm0-1h1v1h-1v-1zm0-1h1v1h-1v-1zm0-1h1v1h-1v-1zm-1-2h1v1h-1v-1zm0-2h1v1h-1v-1zm0 9h1v1h-1v-1zm0-1h1v1h-1v-1zm0-1h1v1h-1v-1zm0-3h1v1h-1v-1zm-2 2h1v1h-1v-1zm2-1h1v1h-1v-1zm0 1h1v1h-1v-1zm0-3h1v1h-1v-1zm-1-1h1v1h-1v-1zm0-2h1v1h-1v-1zm0 9h1v1h-1v-1zm0-1h1v1h-1v-1zm0-1h1v1h-1v-1zm0-1h1v1h-1v-1zm0-2h1v1h-1v-1zm0-1h1v1h-1v-1zm-1 7h1v1h-1v-1zm0-1h1v1h-1v-1zm0-1h1v1h-1v-1zm0-1h1v1h-1v-1zm0-3h1v1h-1v-1zm0-1h1v1h-1v-1zm0-2h1v1h-1v-1zm-1 8h1v1h-1v-1zm0-1h1v1h-1v-1zm0-1h1v1h-1v-1zm0-2h1v1h-1v-1zm0-1h1v1h-1v-1zm0-1h1v1h-1v-1zm-1-2h1v1h-1v-1zm0-1h1v1h-1v-1zm1 0h1v1h-1v-1zm0-1h1v1h-1v-1zm-1 0h1v1h-1v-1zm0 10h1v1h-1v-1zm0-1h1v1h-1v-1zm0-1h1v1h-1v-1zm0-2h1v1h-1v-1zm0-1h1v1h-1v-1zm0-1h1v1h-1v-1zm-1 0h1v1h-1v-1zm0-2h1v1h-1v-1zm0 8h1v1h-1v-1zm0-1h1v1h-1v-1zm0-2h1v1h-1v-1zm-1-1h1v1h-1v-1zm1-1h1v1h-1v-1zm-1-3h1v1h-1v-1zm1-2h1v1h-1v-1zm-1 9h1v1h-1v-1zm0-1h1v1h-1v-1zm0-1h1v1h-1v-1zm-1-1h1v1h-1v-1zm0-2h1v1h-1v-1zm1-1h1v1h-1v-1zm0-2h1v1h-1v-1zm-1-1h1v1h-1v-1zm0-1h1v1h-1v-1zm0-3h1v1h-1v-1zm0 1h1v1h-1v-1zm1 1h1v1h-1v-1zm1 1h1v1h-1v-1zm-2 9h1v1h-1v-1zm0-1h1v1h-1v-1zm0-2h1v1h-1v-1zm-1 2h1v1h-1v-1zm0-1h1v1h-1v-1zm0-1h1v1h-1v-1zm0-1h1v1h-1v-1zm0-1h1v1h-1v-1zm3-9h1v1h-1v-1zm0 2h1v1h-1v-1zm0 1h1v1h-1v-1zm-1-1h1v1h-1v-1zm0 1h1v1h-1v-1zm2 2h1v1h-1v-1zm1 0h1v1h-1v-1zm-2 2h1v1h-1v-1zm2 10h1v1h-1v-1zm4-17h1v1h-1v-1zm-1 2h1v1h-1v-1zm4-1h1v1h-1v-1zm-1 0h1v1h-1v-1zm-1 0h1v1h-1v-1zm-10 0h1v1h-1v-1zm3 0h1v1h-1v-1zm-1 0h1v1h-1v-1zm-1 0h1v1h-1v-1zm8 0h1v1h-1v-1zm-2 3h1v1h-1v-1zm0 1h1v1h-1v-1zm-1 1h1v1h-1v-1zm0 1h1v1h-1v-1zm-5 11h1v1h-1v-1z" fill="#009CFF" fill-rule="evenodd"/></svg>